<?xml version="1.0" standalone="no"?><svg xmlns="http://www.w3.org/2000/svg" viewBox="0 0 1440 320"><path fill="#b58fff" fill-opacity="1" d="M0,96L30,101.3C60,107,120,117,180,149.3C240,181,300,235,360,240C420,245,480,203,540,181.3C600,160,660,160,720,181.3C780,203,840,245,900,229.3C960,213,1020,139,1080,112C1140,85,1200,107,1260,122.7C1320,139,1380,149,1410,154.7L1440,160L1440,0L1410,0C1380,0,1320,0,1260,0C1200,0,1140,0,1080,0C1020,0,960,0,900,0C840,0,780,0,720,0C660,0,600,0,540,0C480,0,420,0,360,0C300,0,240,0,180,0C120,0,60,0,30,0L0,0Z"></path></svg>