<svg width="186" height="188" viewBox="0 0 186 188" fill="none" xmlns="http://www.w3.org/2000/svg">
<g clip-path="url(#clip0_35_17)">
<path d="M93 0C41.6375 0 0 42.0852 0 94C0 145.915 41.6375 188 93 188C144.363 188 186 145.915 186 94C186 42.0852 144.363 0 93 0ZM59.5781 37.3384C61.4942 37.2242 63.2262 38.3818 64.5392 40.4365L77.254 64.8085C78.5927 67.6964 77.832 70.7887 75.835 72.8522L70.0112 78.7386C69.6517 79.2365 69.4152 79.7972 69.4095 80.4139C71.6429 89.152 78.4176 97.2121 84.395 102.755C90.3721 108.298 96.7964 115.802 105.136 117.58C106.167 117.871 107.429 117.975 108.167 117.282L114.933 110.317C117.269 108.528 120.647 107.661 123.141 109.124H123.254L146.198 122.813C149.566 124.947 149.914 129.071 147.503 131.579L131.701 147.426C129.367 149.845 126.267 150.658 123.255 150.662C109.933 150.258 97.3453 143.649 87.0062 136.858C70.0352 124.379 54.4681 108.901 44.695 90.2019C40.9468 82.3608 36.5437 72.356 36.9639 63.604C37.0014 60.3115 37.8828 57.0859 40.1768 54.9637L55.9795 38.991C57.2105 37.9323 58.4283 37.407 59.5781 37.3384V37.3384Z" fill="#9747FF"/>
</g>
<defs>
<clipPath id="clip0_35_17">
<rect width="186" height="188" fill="white"/>
</clipPath>
</defs>
</svg>
